<svg width="56" height="36" viewBox="0 0 56 36" fill="none" xmlns="http://www.w3.org/2000/svg">
    <path d="M0.872 35V1.016H10.824V12.728L8.776 11.448C9.01067 9.848 9.43733 8.376 10.056 7.032C10.6747 5.688 11.4747 4.52533 12.456 3.544C13.4373 2.54133 14.6 1.76266 15.944 1.208C17.3093 0.653333 18.8667 0.375999 20.616 0.375999C21.9813 0.375999 23.048 0.482666 23.816 0.695999C24.6053 0.887998 25.096 1.03733 25.288 1.144L23.656 10.04C23.464 9.93333 23.0373 9.76267 22.376 9.528C21.7147 9.29333 20.8613 9.176 19.816 9.176C18.1093 9.176 16.68 9.464 15.528 10.04C14.376 10.616 13.448 11.384 12.744 12.344C12.0613 13.2827 11.5707 14.328 11.272 15.48C10.9733 16.632 10.824 17.7947 10.824 18.968V35H0.872ZM23.8925 20.984V14.424H46.4205L45.4605 16.088C45.4605 15.9173 45.4605 15.7573 45.4605 15.608C45.4605 15.4373 45.4605 15.2773 45.4605 15.128C45.4605 13.912 45.1725 12.7493 44.5965 11.64C44.0205 10.5093 43.1245 9.592 41.9085 8.888C40.7138 8.16267 39.1778 7.8 37.3005 7.8C35.4232 7.8 33.8018 8.20533 32.4365 9.016C31.0925 9.80533 30.0578 10.9467 29.3325 12.44C28.6285 13.9333 28.2765 15.736 28.2765 17.848C28.2765 20.024 28.6178 21.8907 29.3005 23.448C30.0045 24.984 31.0392 26.168 32.4045 27C33.7912 27.832 35.5085 28.248 37.5565 28.248C38.8792 28.248 40.0205 28.1307 40.9805 27.896C41.9405 27.64 42.7192 27.32 43.3165 26.936C43.9352 26.552 44.4045 26.1253 44.7245 25.656C45.0445 25.1867 45.2365 24.728 45.3005 24.28H55.0925C54.9645 25.7093 54.4738 27.1173 53.6205 28.504C52.7672 29.8693 51.5832 31.1067 50.0685 32.216C48.5538 33.304 46.7085 34.168 44.5325 34.808C42.3778 35.448 39.9138 35.768 37.1405 35.768C33.3858 35.768 30.1112 35.0213 27.3165 33.528C24.5218 32.0133 22.3565 29.9333 20.8205 27.288C19.2845 24.6213 18.5165 21.5493 18.5165 18.072C18.5165 14.552 19.2952 11.4693 20.8525 8.824C22.4312 6.15733 24.6178 4.088 27.4125 2.616C30.2285 1.12267 33.4818 0.375999 37.1725 0.375999C40.9485 0.375999 44.2125 1.13333 46.9645 2.648C49.7165 4.14133 51.8392 6.24267 53.3325 8.952C54.8258 11.64 55.5725 14.776 55.5725 18.36C55.5725 18.8933 55.5618 19.4053 55.5405 19.896C55.5192 20.3867 55.4872 20.7493 55.4445 20.984H23.8925Z" fill="white"/>
</svg>
